<svg width="332" height="329" viewBox="0 0 332 329" fill="none" xmlns="http://www.w3.org/2000/svg">
<rect width="332" height="329" fill="white"/>
<path d="M201.127 163.5C201.127 142.174 183.764 124.873 162.5 124.873C141.237 124.873 123.873 142.174 123.873 163.5C123.873 184.826 141.237 202.127 162.5 202.127C183.764 202.127 201.127 184.826 201.127 163.5ZM162.5 187.028C149.541 187.028 138.972 176.459 138.972 163.5C138.972 150.541 149.541 139.972 162.5 139.972C175.459 139.972 186.028 150.541 186.028 163.5C186.028 176.459 175.459 187.028 162.5 187.028Z" fill="#2F2A52"/>
<path d="M106.573 155.951C102.421 155.951 99.024 159.348 99.024 163.5C99.024 167.652 102.421 171.049 106.573 171.049C110.725 171.049 114.122 167.652 114.122 163.5C114.122 159.348 110.725 155.951 106.573 155.951Z" fill="#2F2A52"/>
<path d="M74.3004 163.5C74.3004 167.652 77.6975 171.049 81.8496 171.049C86.0016 171.049 89.3988 167.652 89.3988 163.5C89.3988 159.348 86.0016 155.951 81.8496 155.951C77.6975 155.951 74.3004 159.348 74.3004 163.5Z" fill="#2F2A52"/>
<path d="M64.6752 163.5C64.6752 148.15 52.1562 135.631 36.8062 135.631C21.4561 135.631 9 148.15 9 163.5C9 178.85 21.5191 191.369 36.8691 191.369C52.2191 191.369 64.6752 178.85 64.6752 163.5ZM36.8691 176.271C29.8232 176.271 24.0984 170.546 24.0984 163.5C24.0984 156.454 29.8232 150.729 36.8691 150.729C43.915 150.729 49.6398 156.454 49.6398 163.5C49.6398 170.546 43.8521 176.271 36.8691 176.271Z" fill="#2F2A52"/>
<path d="M243.15 171.049C247.32 171.049 250.7 167.669 250.7 163.5C250.7 159.331 247.32 155.951 243.15 155.951C238.981 155.951 235.601 159.331 235.601 163.5C235.601 167.669 238.981 171.049 243.15 171.049Z" fill="#2F2A52"/>
<path d="M218.427 171.049C222.579 171.049 225.976 167.652 225.976 163.5C225.976 159.348 222.579 155.951 218.427 155.951C214.275 155.951 210.878 159.348 210.878 163.5C210.878 167.652 214.275 171.049 218.427 171.049Z" fill="#2F2A52"/>
<path d="M288.131 135.631C272.781 135.631 260.262 148.15 260.262 163.5C260.262 178.85 272.781 191.369 288.131 191.369C303.481 191.369 316 178.85 316 163.5C316 148.15 303.481 135.631 288.131 135.631ZM288.131 176.271C281.085 176.271 275.36 170.546 275.36 163.5C275.36 156.454 281.085 150.729 288.131 150.729C295.177 150.729 300.902 156.454 300.902 163.5C300.902 170.546 295.177 176.271 288.131 176.271Z" fill="#2F2A52"/>
<path d="M162.5 211.878C158.348 211.878 154.951 215.275 154.951 219.427C154.951 223.579 158.348 226.976 162.5 226.976C166.652 226.976 170.049 223.579 170.049 219.427C170.049 215.275 166.652 211.878 162.5 211.878Z" fill="#2F2A52"/>
<path d="M162.5 236.601C158.348 236.601 154.951 239.998 154.951 244.15C154.951 248.303 158.348 251.7 162.5 251.7C166.652 251.7 170.049 248.303 170.049 244.15C170.049 239.998 166.652 236.601 162.5 236.601Z" fill="#2F2A52"/>
<path d="M162.5 261.325C147.15 261.325 134.631 273.844 134.631 289.194C134.631 304.544 147.15 317 162.5 317C177.85 317 190.369 304.481 190.369 289.131C190.369 273.781 177.85 261.325 162.5 261.325ZM162.5 301.902C155.454 301.902 149.729 296.177 149.729 289.131C149.729 282.085 155.454 276.36 162.5 276.36C169.546 276.36 175.271 282.085 175.271 289.131C175.271 296.177 169.546 301.902 162.5 301.902Z" fill="#2F2A52"/>
<path d="M162.5 115.122C166.652 115.122 170.049 111.725 170.049 107.573C170.049 103.421 166.652 100.024 162.5 100.024C158.348 100.024 154.951 103.421 154.951 107.573C154.951 111.725 158.348 115.122 162.5 115.122Z" fill="#2F2A52"/>
<path d="M162.5 90.3988C166.669 90.3988 170.049 87.0189 170.049 82.8496C170.049 78.6803 166.669 75.3004 162.5 75.3004C158.331 75.3004 154.951 78.6803 154.951 82.8496C154.951 87.0189 158.331 90.3988 162.5 90.3988Z" fill="#2F2A52"/>
<path d="M162.5 65.6752C177.85 65.6752 190.369 53.1562 190.369 37.8062C190.369 22.4561 177.85 10 162.5 10C147.15 10 134.631 22.5191 134.631 37.8691C134.631 53.2191 147.15 65.6752 162.5 65.6752ZM162.5 25.0984C169.546 25.0984 175.271 30.8232 175.271 37.8691C175.271 44.915 169.546 50.6398 162.5 50.6398C155.454 50.6398 149.729 44.915 149.729 37.8691C149.729 30.8232 155.454 25.0984 162.5 25.0984Z" fill="#2F2A52"/>
<path d="M117.645 197.723C114.689 200.68 114.689 205.461 117.645 208.418C120.602 211.374 125.383 211.374 128.34 208.418C131.297 205.461 131.297 200.68 128.34 197.723C125.32 194.766 120.539 194.766 117.645 197.723Z" fill="#2F2A52"/>
<path d="M105.504 228.046C109.673 228.046 113.053 224.666 113.053 220.496C113.053 216.327 109.673 212.947 105.504 212.947C101.334 212.947 97.9545 216.327 97.9545 220.496C97.9545 224.666 101.334 228.046 105.504 228.046Z" fill="#2F2A52"/>
<path d="M53.9805 232.638C43.0971 243.521 43.0971 261.136 53.9805 272.02C64.8639 282.903 82.4787 282.903 93.3621 272.02C104.246 261.136 104.246 243.521 93.3621 232.638C82.4787 221.817 64.801 221.817 53.9805 232.638ZM82.6674 261.388C77.6976 266.358 69.6451 266.358 64.6752 261.388C59.7053 256.418 59.7053 248.365 64.6752 243.396C69.6451 238.426 77.6976 238.426 82.6674 243.396C87.6373 248.303 87.6373 256.418 82.6674 261.388Z" fill="#2F2A52"/>
<path d="M219.496 114.053C223.666 114.053 227.046 110.673 227.046 106.504C227.046 102.334 223.666 98.9545 219.496 98.9545C215.327 98.9545 211.947 102.334 211.947 106.504C211.947 110.673 215.327 114.053 219.496 114.053Z" fill="#2F2A52"/>
<path d="M202.07 131.479C206.24 131.479 209.619 128.099 209.619 123.93C209.619 119.76 206.24 116.38 202.07 116.38C197.901 116.38 194.521 119.76 194.521 123.93C194.521 128.099 197.901 131.479 202.07 131.479Z" fill="#2F2A52"/>
<path d="M271.019 94.3621C281.903 83.4787 281.903 65.8639 271.019 54.9805C260.136 44.0971 242.521 44.0971 231.638 54.9805C220.754 65.8639 220.754 83.4787 231.638 94.3621C242.521 105.245 260.199 105.183 271.019 94.3621ZM242.333 65.6123C247.302 60.6424 255.355 60.6424 260.325 65.6123C265.295 70.5822 265.295 78.6346 260.325 83.6045C255.355 88.5744 247.302 88.5744 242.333 83.6045C237.363 78.6975 237.363 70.5822 242.333 65.6123Z" fill="#2F2A52"/>
<path d="M219.496 228.046C223.666 228.046 227.046 224.666 227.046 220.496C227.046 216.327 223.666 212.947 219.496 212.947C215.327 212.947 211.947 216.327 211.947 220.496C211.947 224.666 215.327 228.046 219.496 228.046Z" fill="#2F2A52"/>
<path d="M196.723 197.723C193.766 200.68 193.766 205.461 196.723 208.418C199.68 211.374 204.461 211.374 207.418 208.418C210.374 205.461 210.374 200.68 207.418 197.723C204.461 194.766 199.68 194.766 196.723 197.723Z" fill="#2F2A52"/>
<path d="M231.638 232.638C220.754 243.521 220.754 261.136 231.638 272.02C242.521 282.903 260.136 282.903 271.019 272.02C281.903 261.136 281.903 243.521 271.019 232.638C260.199 221.817 242.521 221.817 231.638 232.638ZM260.388 261.388C255.418 266.358 247.365 266.358 242.395 261.388C237.426 256.418 237.426 248.365 242.395 243.396C247.365 238.426 255.418 238.426 260.388 243.396C265.358 248.303 265.358 256.418 260.388 261.388Z" fill="#2F2A52"/>
<path d="M122.93 131.479C127.099 131.479 130.479 128.099 130.479 123.93C130.479 119.76 127.099 116.38 122.93 116.38C118.76 116.38 115.38 119.76 115.38 123.93C115.38 128.099 118.76 131.479 122.93 131.479Z" fill="#2F2A52"/>
<path d="M105.504 114.053C109.673 114.053 113.053 110.673 113.053 106.504C113.053 102.334 109.673 98.9545 105.504 98.9545C101.334 98.9545 97.9545 102.334 97.9545 106.504C97.9545 110.673 101.334 114.053 105.504 114.053Z" fill="#2F2A52"/>
<path d="M93.3621 94.3621C104.246 83.4787 104.246 65.8639 93.3621 54.9805C82.4787 44.0971 64.8639 44.0971 53.9805 54.9805C43.0971 65.8639 43.0971 83.4787 53.9805 94.3621C64.801 105.183 82.4787 105.183 93.3621 94.3621ZM64.6123 65.6123C69.5822 60.6424 77.6346 60.6424 82.6045 65.6123C87.5744 70.5822 87.5744 78.6346 82.6045 83.6045C77.6346 88.5744 69.5822 88.5744 64.6123 83.6045C59.6424 78.6976 59.6424 70.5822 64.6123 65.6123Z" fill="#2F2A52"/>
</svg>
